<?xml version="1.0" encoding="UTF-8"?>
<!DOCTYPE svg PUBLIC "-//W3C//DTD SVG 1.1//EN" "http://www.w3.org/Graphics/SVG/1.1/DTD/svg11.dtd">
<!-- Creator: CorelDRAW -->
<svg xmlns="http://www.w3.org/2000/svg" xml:space="preserve" width="1949px" height="640px" style="shape-rendering:geometricPrecision; text-rendering:geometricPrecision; image-rendering:optimizeQuality; fill-rule:evenodd; clip-rule:evenodd"
viewBox="0 0 1860.22 611.289"
 xmlns:xlink="http://www.w3.org/1999/xlink">
 <defs>
  <style type="text/css">
   <![CDATA[
    .fil1 {fill:#3399FF}
    .fil0 {fill:#3399FF;fill-rule:nonzero}
   ]]>
  </style>
 </defs>
 <g id="Layer_x0020_1">
  <metadata id="CorelCorpID_0Corel-Layer"/>
  <g id="_179259216">
   <path id="_179260368" class="fil0" d="M1853.95 186.959l-52.6426 52.6437c-21.3761,-21.163 -40.7319,-31.7986 -58.1723,-31.7986 -9.57137,0 -17.1214,2.02025 -22.4403,6.06187 -5.42378,4.04162 -8.18809,9.14523 -8.18809,15.1011 0,4.57374 1.80717,8.82731 5.21071,12.657 3.4024,3.82742 11.9107,9.03813 25.4177,15.7392l31.0534 15.5261c32.8617,16.2713 55.4069,32.7557 67.6388,49.5592 12.2297,16.8023 18.3964,36.582 18.3964,59.2343 0,30.0963 -11.0595,55.196 -33.1796,75.4019 -22.1201,20.0999 -51.7914,30.2022 -88.9078,30.2022 -49.4521,0 -88.9078,-19.3547 -118.472,-57.9592l52.4306 -57.0044c9.89042,11.5939 21.588,21.0593 34.9879,28.1831 13.3999,7.12611 25.3117,10.7427 35.732,10.7427 11.1677,0 20.2059,-2.65947 27.014,-8.08324 6.91303,-5.42378 10.3154,-11.5927 10.3154,-18.7177 0,-13.0809 -12.3357,-25.8427 -37.0093,-38.2844l-28.7141 -14.3571c-54.8759,-27.651 -82.2067,-62.2139 -82.2067,-103.69 0,-26.801 10.3154,-49.7711 30.9474,-68.7019 20.6309,-19.0356 47.1105,-28.607 79.3353,-28.607 22.013,0 42.6462,4.89166 62.1068,14.5701 19.4629,9.67735 35.9462,23.5023 49.3461,41.5808z"/>
   <path id="_179260200" class="fil0" d="M1529.34 139.529l84.7591 0 0 290.437c0,57.3211 -11.5927,99.5423 -34.67,126.447 -30.9463,36.5843 -77.5281,54.877 -139.847,54.877 -33.1808,0 -61.1508,-4.14872 -83.8019,-12.4439 -22.6523,-8.29406 -41.7973,-20.5238 -57.3223,-36.5832 -15.6332,-16.1654 -27.1189,-35.732 -34.564,-58.8093l93.7995 0c8.29519,9.57025 18.9297,16.8012 32.0117,21.6951 13.0798,4.89166 28.607,7.33693 46.4736,7.33693 22.8642,0 41.1558,-3.5095 55.0878,-10.6356 13.9332,-7.01901 23.7165,-16.1642 29.4582,-27.4368 5.74395,-11.1666 8.61536,-30.5224 8.61536,-57.9615 -14.9963,14.9963 -30.6284,25.7367 -47.1128,32.3319 -16.3762,6.48689 -34.9891,9.78332 -55.727,9.78332 -45.5153,0 -83.909,-16.3784 -115.282,-49.239 -31.3713,-32.7557 -47.0057,-74.3365 -47.0057,-124.64 0,-53.8128 16.5915,-96.991 49.77,-129.639 30.2034,-29.4593 66.0447,-44.2414 107.839,-44.2414 19.5678,0 37.9664,3.61548 55.302,10.8476 17.3333,7.12611 34.7749,18.9297 52.2164,35.3081l0 -37.4343zm-88.1626 70.827c-26.7998,0 -48.92,8.93328 -66.3615,26.9058 -17.4427,17.9737 -26.1618,40.5188 -26.1618,67.7448 0,28.2891 8.93328,51.4723 26.7998,69.4449 17.7606,18.0785 40.1986,27.1189 67.2127,27.1189 26.3737,0 48.1748,-8.82731 65.2973,-26.4808 17.1214,-17.6535 25.7356,-40.7319 25.7356,-69.4449 0,-28.2891 -8.61424,-51.1544 -25.8427,-68.8079 -17.2285,-17.6535 -39.4557,-26.4808 -66.6794,-26.4808z"/>
   <polygon id="_179260104" class="fil0" points="1170.06,139.529 1255.46,139.529 1255.46,478.566 1170.06,478.566 "/>
   <path id="_179259936" class="fil0" d="M1212.82 0c6.47336,0 12.5645,1.02591 18.2645,3.06757 -1.57606,0.921062 -3.05743,2.07098 -4.44522,3.44524 -4.13294,4.17465 -6.22083,9.18469 -6.22083,15.0696 0,6.09569 2.08789,11.3132 6.30313,15.5701 4.17465,4.30092 9.26698,6.42827 15.2375,6.42827 5.75973,0 10.7269,-2.08564 14.9005,-6.302 2.09691,-2.09804 3.65832,-4.42493 4.68986,-6.97955 3.81277,7.56804 5.7214,15.9376 5.7214,25.1077 0,15.2071 -5.21296,28.182 -15.8463,38.8165 -10.6356,10.7427 -23.2903,16.0594 -37.9664,16.0594 -15.2071,0 -28.182,-5.42378 -38.8165,-16.3784 -10.7427,-10.8476 -16.0594,-24.1404 -16.0594,-39.6665 0,-14.9963 5.31668,-27.757 15.8463,-38.3937 10.6334,-10.5274 23.3974,-15.8441 38.3915,-15.8441z"/>
   <path id="_179259768" class="fil0" d="M1062.3 139.529l84.7591 0 0 290.437c0,57.3211 -11.5927,99.5423 -34.67,126.447 -30.9463,36.5843 -77.5281,54.877 -139.847,54.877 -33.1819,0 -61.1508,-4.14872 -83.8019,-12.4439 -22.6523,-8.29406 -41.7973,-20.5238 -57.3223,-36.5832 -15.6332,-16.1654 -27.1189,-35.732 -34.564,-58.8093l93.7995 0c8.29519,9.57025 18.9297,16.8012 32.0106,21.6951 13.0809,4.89166 28.6081,7.33693 46.4747,7.33693 22.8642,0 41.1558,-3.5095 55.0878,-10.6356 13.932,-7.01901 23.7165,-16.1642 29.4582,-27.4368 5.74395,-11.1666 8.61536,-30.5224 8.61536,-57.9615 -14.9963,14.9963 -30.6284,25.7367 -47.1128,32.3319 -16.3762,6.48689 -34.9891,9.78332 -55.727,9.78332 -45.5153,0 -83.909,-16.3784 -115.282,-49.239 -31.3713,-32.7557 -47.0057,-74.3365 -47.0057,-124.64 0,-53.8128 16.5915,-96.991 49.77,-129.639 30.2034,-29.4593 66.0447,-44.2414 107.839,-44.2414 19.5678,0 37.9664,3.61548 55.302,10.8476 17.3333,7.12611 34.7749,18.9297 52.2164,35.3081l0 -37.4343zm-88.1626 70.827c-26.7998,0 -48.92,8.93328 -66.3627,26.9058 -17.4415,17.9737 -26.1618,40.5188 -26.1618,67.7448 0,28.2891 8.93441,51.4723 26.801,69.4449 17.7606,18.0785 40.1986,27.1189 67.2127,27.1189 26.3737,0 48.1748,-8.82731 65.2962,-26.4808 17.1225,-17.6535 25.7367,-40.7319 25.7367,-69.4449 0,-28.2891 -8.61424,-51.1544 -25.8427,-68.8079 -17.2285,-17.6535 -39.4557,-26.4808 -66.6794,-26.4808z"/>
   <path id="_179259600" class="fil0" d="M388.972 147.555c3.2085,-1.75306 6.47223,-3.36407 9.79121,-4.83642 17.7606,-7.86904 37.1142,-11.9107 58.0663,-11.9107 21.163,0 40.3057,5.21183 57.3223,15.6344 17.0143,10.4203 30.7332,25.5225 41.1558,45.5153 13.507,-19.9928 30.0963,-35.095 49.664,-45.5153 19.676,-10.4225 41.0509,-15.6344 64.3413,-15.6344 24.1404,0 45.3045,5.63685 63.5961,16.9094 18.2916,11.1655 31.3725,25.8438 39.3486,43.9223 8.08324,18.0785 12.0178,47.4318 12.0178,88.1615l0 198.766 -85.6114 0 0 -171.965c0,-38.4986 -4.78456,-64.4484 -14.3548,-78.0602 -9.5725,-13.6119 -23.9296,-20.4201 -42.9652,-20.4201 -14.5713,0 -27.651,4.14872 -39.1367,12.4439 -11.5916,8.29406 -20.0999,19.7808 -25.7367,34.4558 -5.63572,14.6784 -8.40229,38.1806 -8.40229,70.6162l0 152.929 -85.7162 0 0 -164.201c0,-30.3105 -2.23219,-52.3235 -6.69883,-65.9354 -4.46664,-13.6141 -11.1677,-23.7165 -20.101,-30.3105 -8.93215,-6.69883 -19.6749,-9.99752 -32.3296,-9.99752 -12.4259,0 -23.8664,3.28516 -34.2506,9.77881l0 -70.3457z"/>
   <path id="_179259432" class="fil0" d="M266.084 139.529l84.7602 0 0 339.037 -84.7602 0 0 -35.8391c-16.5915,15.8463 -33.2879,27.1189 -49.9842,34.1368 -16.8035,6.91303 -34.882,10.4225 -54.4486,10.4225 -43.8175,0 -81.6768,-17.0154 -113.687,-50.9402 -32.0106,-33.926 -47.964,-76.146 -47.964,-126.662 0,-52.3213 15.4213,-95.1794 46.3676,-128.681 30.9497,-33.3927 68.5948,-50.195 112.837,-50.195 20.3107,0 39.4535,3.93452 57.32,11.5927 17.8677,7.65597 34.3521,19.2487 49.5592,34.5629l0 -37.4343zm-89.4388 69.8699c-26.3737,0 -48.2819,9.25233 -65.7246,27.863 -17.4393,18.6118 -26.1618,42.4331 -26.1618,71.4651 0,29.3533 8.82956,53.3877 26.589,72.3185 17.7606,18.9285 39.6665,28.3939 65.6152,28.3939 26.801,0 49.0271,-9.3583 66.6806,-27.9689 17.6535,-18.5058 26.4819,-42.8581 26.4819,-73.0615 0,-29.4582 -8.82844,-53.3877 -26.4819,-71.5722 -17.6535,-18.2927 -39.9867,-27.4379 -66.9985,-27.4379z"/>
   <path id="_179259264" class="fil1" d="M167.749 245.335l0.00450948 0c3.77444,0 6.85667,3.08449 6.85667,6.85779l0 66.2916 27.9069 -43.8705c2.02476,-3.18369 6.28171,-4.13294 9.4654,-2.10818l0.00563685 0.00338211c3.18369,2.02476 4.12843,6.28396 2.1048,9.46766l-40.5504 63.7483c-0.679804,1.06987 -1.61214,1.88722 -2.67187,2.42385l-0.0732791 0.0360758 -0.0755338 0.0372032 -0.0732791 0.0349485 -0.0800433 0.0360758 -0.069897 0.030439 -0.082298 0.0360758 -0.0710243 0.0293116c-0.800433,0.329192 -1.67527,0.511826 -2.59182,0.511826l-0.00450948 0c-0.7373,0 -1.44867,-0.117247 -2.11382,-0.334829l-0.0800433 -0.0270569 -0.0800433 -0.0259295 -0.0777885 -0.0293116 -0.082298 -0.030439 -0.0744064 -0.0281843 -0.0834254 -0.0349485 -0.0710243 -0.030439 -0.305517 -0.137539 -0.0946991 -0.0450948 -0.0541138 -0.0281843 -0.146558 -0.0789159 -0.105973 -0.0574959 -0.0383306 -0.0225474 -0.263805 -0.157832 -0.00563685 -0.00450948 -0.146558 -0.0969538 -0.00338211 -0.00338211c-0.560303,-0.377669 -1.04845,-0.82749 -1.45882,-1.32691l-0.0473496 -0.0552411 -0.0574959 -0.0721517 -0.0462222 -0.0597506 -0.0529864 -0.0721517 -0.0473496 -0.0631327 -0.051859 -0.0710243 -0.0439674 -0.0642601 -0.0496043 -0.0710243 -0.0439674 -0.0676422c-0.710243,-1.08002 -1.12963,-2.37424 -1.12963,-3.75978l0 -89.8514c0,-3.77331 3.08223,-6.85779 6.85667,-6.85779zm0.284097 90.4309c2.71696,0 4.91872,2.20175 4.91872,4.91872 0,2.71696 -2.20175,4.91872 -4.91872,4.91872 -2.71584,0 -4.91872,-2.20175 -4.91872,-4.91872 0,-2.71696 2.20288,-4.91872 4.91872,-4.91872z"/>
  </g>
 </g>
</svg>
